<svg width="37" height="29" viewBox="0 0 37 29" fill="none" xmlns="http://www.w3.org/2000/svg">
<path d="M29.7098 3.95556C29.7005 3.93762 29.6852 3.92357 29.6665 3.91591C27.5072 2.92519 25.2285 2.21873 22.8874 1.8142C22.8661 1.81025 22.8441 1.8131 22.8246 1.82235C22.805 1.83161 22.7889 1.84679 22.7785 1.86575C22.4682 2.42892 22.1865 3.00739 21.9345 3.59895C19.411 3.21588 16.8441 3.21588 14.3206 3.59895C14.0669 3.00588 13.7807 2.42727 13.4633 1.86575C13.4524 1.8472 13.4362 1.83237 13.4168 1.82318C13.3973 1.81398 13.3756 1.81086 13.3543 1.8142C11.013 2.21788 8.73416 2.92439 6.57512 3.91597C6.55664 3.9238 6.54104 3.93718 6.53049 3.95426C2.21283 10.4021 1.03006 16.6914 1.61029 22.9029C1.61192 22.9181 1.61659 22.9328 1.62404 22.9462C1.63148 22.9596 1.64154 22.9713 1.65362 22.9807C4.16775 24.8423 6.97984 26.2632 9.96988 27.1829C9.99093 27.1892 10.0134 27.1889 10.0343 27.182C10.0552 27.1752 10.0735 27.1621 10.0867 27.1446C10.7289 26.2708 11.298 25.3455 11.788 24.3781C11.7948 24.3649 11.7986 24.3503 11.7993 24.3354C11.8 24.3206 11.7976 24.3057 11.7921 24.2919C11.7867 24.278 11.7783 24.2655 11.7677 24.2551C11.757 24.2447 11.7443 24.2367 11.7303 24.2315C10.833 23.8882 9.96428 23.4743 9.13233 22.9938C9.11722 22.9849 9.10452 22.9724 9.09537 22.9575C9.08622 22.9425 9.08089 22.9255 9.07986 22.908C9.07882 22.8905 9.08211 22.8731 9.08944 22.8571C9.09676 22.8412 9.10789 22.8273 9.12185 22.8167C9.29642 22.6859 9.4711 22.5499 9.63779 22.4125C9.6526 22.4003 9.67052 22.3925 9.68953 22.3899C9.70855 22.3873 9.7279 22.3901 9.74541 22.398C15.1959 24.8855 21.0968 24.8855 26.4827 22.398C26.5003 22.3896 26.5198 22.3864 26.5391 22.3888C26.5584 22.3911 26.5766 22.3989 26.5917 22.4112C26.7584 22.5486 26.9331 22.6859 27.1089 22.8167C27.123 22.8272 27.1342 22.841 27.1416 22.8569C27.1491 22.8727 27.1525 22.8902 27.1516 22.9077C27.1507 22.9252 27.1455 22.9422 27.1364 22.9572C27.1274 22.9722 27.1148 22.9848 27.0998 22.9938C26.2697 23.4784 25.4002 23.892 24.5005 24.2302C24.4865 24.2356 24.4739 24.2438 24.4633 24.2543C24.4527 24.2649 24.4445 24.2776 24.4391 24.2915C24.4338 24.3055 24.4314 24.3204 24.4322 24.3353C24.4331 24.3503 24.437 24.3648 24.4439 24.3781C24.9422 25.3401 25.5104 26.2642 26.1439 27.143C26.1567 27.1611 26.1749 27.1746 26.1959 27.1817C26.2169 27.1888 26.2396 27.1892 26.2607 27.1827C29.2561 26.2661 32.0731 24.8451 34.5904 22.9807C34.6027 22.9718 34.6129 22.9603 34.6204 22.9471C34.6278 22.9339 34.6324 22.9193 34.6338 22.9042C35.3284 15.7231 33.4708 9.48533 29.7098 3.95556ZM12.602 19.1207C10.961 19.1207 9.6089 17.6148 9.6089 15.7654C9.6089 13.916 10.9348 12.41 12.602 12.41C14.2823 12.41 15.6213 13.9291 15.5951 15.7653C15.5951 17.6148 14.2691 19.1207 12.602 19.1207ZM23.6685 19.1207C22.0275 19.1207 20.6754 17.6148 20.6754 15.7654C20.6754 13.916 22.0013 12.41 23.6685 12.41C25.3488 12.41 26.6878 13.9291 26.6616 15.7653C26.6616 17.6148 25.3488 19.1207 23.6685 19.1207Z" fill="#E3E2EE"/>
</svg>
