<svg width="200" height="240" viewBox="0 0 200 240" fill="none" xmlns="http://www.w3.org/2000/svg">
<path fill-rule="evenodd" clip-rule="evenodd" d="M172.921 71.1627L172.916 71.1061L172.91 71.0495C171.707 58.7532 169.103 43.4514 166.049 31.511C164.59 25.8079 162.697 19.5223 160.279 14.6027C159.316 12.645 156.945 8.02736 152.489 4.54015C149.952 2.55396 145.493 -0.0266634 139.49 0.000208134C133.153 0.0285735 128.284 2.93494 125.223 5.8605L125.127 5.95272L125.032 6.04625C120.575 10.4204 118.765 16.0212 118.181 17.8264L118.159 17.8964C117.25 20.7062 116.541 23.787 115.967 26.6252C114.89 31.9506 113.877 38.5319 112.899 44.8948L112.695 46.2189C110.397 61.1476 108.208 74.1783 105.457 81.1474L105.448 81.1691L105.44 81.1907C104.89 82.5941 104.433 83.4015 104.16 83.8185C103.457 83.9552 102.275 84.0717 99.7155 84.1705C99.466 84.1801 99.1917 84.1896 98.8953 84.1999C96.4099 84.2861 92.3715 84.4262 88.3924 85.1392C69.0305 88.5874 55.0099 103.735 40.1224 121.415C38.8528 122.902 37.5313 124.465 36.1748 126.095C32.4917 130.52 33.4716 137.111 38.1879 140.413C42.5341 143.456 48.4915 142.583 51.8967 138.515C52.9385 137.27 53.9645 136.058 54.967 134.885C70.5912 116.326 80.3102 107.301 91.7516 105.267C94.2986 104.809 96.9328 104.712 99.573 104.615C108.665 104.279 117.827 103.941 123.738 88.869C126.888 80.889 129.136 68.7241 131.037 56.852C131.499 53.9632 131.941 51.0917 132.37 48.3021C132.821 45.3716 133.258 42.5314 133.69 39.8563C135.25 30.2045 136.75 22.7023 138.624 20.8623C140.184 19.3713 142.004 21.8023 143.832 26.5394C143.867 26.6281 143.901 26.7176 143.935 26.8078C145.154 30.0217 146.374 34.2463 147.522 39.0033C148.837 44.4486 150.056 50.5917 151.069 56.715C152.007 62.3857 152.768 68.0395 153.264 73.1067C154.137 82.5482 154.067 89.9756 154.011 95.9246C153.933 104.232 153.882 109.657 156.463 113.656C158.918 117.392 163.718 119.837 168.326 122.185C172.029 124.072 175.608 125.896 177.746 128.275C182.544 133.741 179.961 142.003 172.702 143.656C165.444 145.308 153.51 140.351 146.498 136.156C145.919 135.814 145.376 135.478 144.86 135.159C139.232 131.674 136.823 130.182 126.568 145.435C124.749 148.162 122.686 151.412 120.407 155.003C108.658 173.514 91.1522 201.096 71.5754 212.806C48.3236 226.662 22.2423 217.764 19.9048 199.459C19.4529 195.724 19.9897 191.592 21.2642 187.224C22.6182 182.584 21.3122 177.428 17.3524 174.655L15.9265 173.656C11.5829 170.615 5.4926 172.171 3.71014 177.165C1.17116 184.279 -0.784286 192.942 0.311045 201.995L0.319429 202.065L0.328272 202.134C2.8364 221.775 17.7702 233.627 32.6331 237.879C47.77 242.21 65.5257 239.984 81.4325 230.505L81.4468 230.496L81.461 230.488C96.7766 221.326 109.7 205.849 119.435 192.427C126.149 183.17 132.645 172.946 137.526 165.264C139.588 162.019 141.362 159.227 142.742 157.153C146.086 158.79 149.78 160.341 153.562 161.576C159.146 163.4 168.08 165.622 176.947 163.604C198.324 158.737 207.842 132.176 192.366 114.544L192.288 114.456L192.209 114.368C188.94 110.731 185.2 108.343 182.727 106.899C180.716 105.725 178.423 104.558 176.777 103.721C176.402 103.53 176.06 103.356 175.763 103.203C174.964 102.792 174.311 102.446 173.772 102.148C173.748 101.415 173.731 100.491 173.733 99.3428C173.736 98.4235 173.746 97.4092 173.757 96.3038C173.816 90.3551 173.902 81.7701 172.921 71.1627ZM103.902 84.1716C103.888 84.1852 103.882 84.193 103.882 84.193C103.882 84.193 103.884 84.1913 103.887 84.1876C103.891 84.1841 103.895 84.1788 103.902 84.1716Z" fill="white"/>
</svg>
