<svg width="2729" height="2729" viewBox="0 0 2729 2729" fill="none" xmlns="http://www.w3.org/2000/svg">
    <path fill-rule="evenodd" clip-rule="evenodd" d="M1430 1364C1430 1399.9 1400.9 1429 1365 1429C1329.1 1429 1300 1399.9 1300 1364C1300 1328.1 1329.1 1299 1365 1299C1400.9 1299 1430 1328.1 1430 1364ZM1428 1364C1428 1398.79 1399.79 1427 1365 1427C1330.21 1427 1302 1398.79 1302 1364C1302 1329.21 1330.21 1301 1365 1301C1399.79 1301 1428 1329.21 1428 1364Z" fill="currentColor"/>
    <path fill-rule="evenodd" clip-rule="evenodd" d="M1480 1364C1480 1427.51 1428.51 1479 1365 1479C1301.49 1479 1250 1427.51 1250 1364C1250 1300.49 1301.49 1249 1365 1249C1428.51 1249 1480 1300.49 1480 1364ZM1478 1364C1478 1426.41 1427.41 1477 1365 1477C1302.59 1477 1252 1426.41 1252 1364C1252 1301.59 1302.59 1251 1365 1251C1427.41 1251 1478 1301.59 1478 1364Z" fill="currentColor"/>
    <path fill-rule="evenodd" clip-rule="evenodd" d="M1365 1529C1456.13 1529 1530 1455.13 1530 1364C1530 1272.87 1456.13 1199 1365 1199C1273.87 1199 1200 1272.87 1200 1364C1200 1455.13 1273.87 1529 1365 1529ZM1365 1527C1455.02 1527 1528 1454.02 1528 1364C1528 1273.98 1455.02 1201 1365 1201C1274.98 1201 1202 1273.98 1202 1364C1202 1454.02 1274.98 1527 1365 1527Z" fill="currentColor"/>
    <path fill-rule="evenodd" clip-rule="evenodd" d="M1365 1579C1483.74 1579 1580 1482.74 1580 1364C1580 1245.26 1483.74 1149 1365 1149C1246.26 1149 1150 1245.26 1150 1364C1150 1482.74 1246.26 1579 1365 1579ZM1365 1577C1482.64 1577 1578 1481.64 1578 1364C1578 1246.36 1482.64 1151 1365 1151C1247.36 1151 1152 1246.36 1152 1364C1152 1481.64 1247.36 1577 1365 1577Z" fill="currentColor"/>
    <path fill-rule="evenodd" clip-rule="evenodd" d="M1365 1629C1511.36 1629 1630 1510.36 1630 1364C1630 1217.64 1511.36 1099 1365 1099C1218.64 1099 1100 1217.64 1100 1364C1100 1510.36 1218.64 1629 1365 1629ZM1365 1627C1510.25 1627 1628 1509.25 1628 1364C1628 1218.75 1510.25 1101 1365 1101C1219.75 1101 1102 1218.75 1102 1364C1102 1509.25 1219.75 1627 1365 1627Z" fill="currentColor"/>
    <path fill-rule="evenodd" clip-rule="evenodd" d="M1365 1679C1538.97 1679 1680 1537.97 1680 1364C1680 1190.03 1538.97 1049 1365 1049C1191.03 1049 1050 1190.03 1050 1364C1050 1537.97 1191.03 1679 1365 1679ZM1365 1677C1537.87 1677 1678 1536.87 1678 1364C1678 1191.13 1537.87 1051 1365 1051C1192.13 1051 1052 1191.13 1052 1364C1052 1536.87 1192.13 1677 1365 1677Z" fill="currentColor"/>
    <path fill-rule="evenodd" clip-rule="evenodd" d="M1730 1364C1730 1565.58 1566.58 1729 1365 1729C1163.42 1729 1000 1565.58 1000 1364C1000 1162.42 1163.42 999 1365 999C1566.58 999 1730 1162.42 1730 1364ZM1728 1364C1728 1564.48 1565.48 1727 1365 1727C1164.52 1727 1002 1564.48 1002 1364C1002 1163.52 1164.52 1001 1365 1001C1565.48 1001 1728 1163.52 1728 1364Z" fill="currentColor"/>
    <path fill-rule="evenodd" clip-rule="evenodd" d="M1780 1364C1780 1593.2 1594.2 1779 1365 1779C1135.8 1779 950 1593.2 950 1364C950 1134.8 1135.8 949 1365 949C1594.2 949 1780 1134.8 1780 1364ZM1778 1364C1778 1592.09 1593.09 1777 1365 1777C1136.91 1777 952 1592.09 952 1364C952 1135.91 1136.91 951 1365 951C1593.09 951 1778 1135.91 1778 1364Z" fill="currentColor"/>
    <path fill-rule="evenodd" clip-rule="evenodd" d="M1830 1364C1830 1620.81 1621.81 1829 1365 1829C1108.19 1829 900 1620.81 900 1364C900 1107.19 1108.19 899 1365 899C1621.81 899 1830 1107.19 1830 1364ZM1828 1364C1828 1619.71 1620.71 1827 1365 1827C1109.29 1827 902 1619.71 902 1364C902 1108.29 1109.29 901 1365 901C1620.71 901 1828 1108.29 1828 1364Z" fill="currentColor"/>
    <path fill-rule="evenodd" clip-rule="evenodd" d="M1880 1364C1880 1648.43 1649.43 1879 1365 1879C1080.57 1879 850 1648.43 850 1364C850 1079.57 1080.57 849 1365 849C1649.43 849 1880 1079.57 1880 1364ZM1878 1364C1878 1647.32 1648.32 1877 1365 1877C1081.68 1877 852 1647.32 852 1364C852 1080.68 1081.68 851 1365 851C1648.32 851 1878 1080.68 1878 1364Z" fill="currentColor"/>
    <path fill-rule="evenodd" clip-rule="evenodd" d="M1365 1929C1677.04 1929 1930 1676.04 1930 1364C1930 1051.96 1677.04 799 1365 799C1052.96 799 800 1051.96 800 1364C800 1676.04 1052.96 1929 1365 1929ZM1365 1927C1675.94 1927 1928 1674.94 1928 1364C1928 1053.06 1675.94 801 1365 801C1054.06 801 802 1053.06 802 1364C802 1674.94 1054.06 1927 1365 1927Z" fill="currentColor"/>
    <path fill-rule="evenodd" clip-rule="evenodd" d="M1364.5 1979C1703.88 1979 1979 1703.88 1979 1364.5C1979 1025.12 1703.88 750 1364.5 750C1025.12 750 750 1025.12 750 1364.5C750 1703.88 1025.12 1979 1364.5 1979ZM1364.5 1977C1702.77 1977 1977 1702.77 1977 1364.5C1977 1026.23 1702.77 752 1364.5 752C1026.23 752 752 1026.23 752 1364.5C752 1702.77 1026.23 1977 1364.5 1977Z" fill="currentColor"/>
    <path fill-rule="evenodd" clip-rule="evenodd" d="M1364.5 2029C1731.49 2029 2029 1731.49 2029 1364.5C2029 997.507 1731.49 700 1364.5 700C997.507 700 700 997.507 700 1364.5C700 1731.49 997.507 2029 1364.5 2029ZM1364.5 2027C1730.39 2027 2027 1730.39 2027 1364.5C2027 998.611 1730.39 702 1364.5 702C998.611 702 702 998.611 702 1364.5C702 1730.39 998.611 2027 1364.5 2027Z" fill="currentColor"/>
    <path fill-rule="evenodd" clip-rule="evenodd" d="M1364.5 2079C1759.11 2079 2079 1759.11 2079 1364.5C2079 969.893 1759.11 650 1364.5 650C969.893 650 650 969.893 650 1364.5C650 1759.11 969.893 2079 1364.5 2079ZM1364.5 2077C1758 2077 2077 1758 2077 1364.5C2077 970.997 1758 652 1364.5 652C970.997 652 652 970.997 652 1364.5C652 1758 970.997 2077 1364.5 2077Z" fill="currentColor"/>
    <path fill-rule="evenodd" clip-rule="evenodd" d="M2129 1364.5C2129 1786.72 1786.72 2129 1364.5 2129C942.278 2129 600 1786.72 600 1364.5C600 942.278 942.278 600 1364.5 600C1786.72 600 2129 942.278 2129 1364.5ZM2127 1364.5C2127 1785.62 1785.62 2127 1364.5 2127C943.383 2127 602 1785.62 602 1364.5C602 943.383 943.383 602 1364.5 602C1785.62 602 2127 943.383 2127 1364.5Z" fill="currentColor"/>
    <path fill-rule="evenodd" clip-rule="evenodd" d="M2179 1364.5C2179 1814.34 1814.34 2179 1364.5 2179C914.664 2179 550 1814.34 550 1364.5C550 914.664 914.664 550 1364.5 550C1814.34 550 2179 914.664 2179 1364.5ZM2177 1364.5C2177 1813.23 1813.23 2177 1364.5 2177C915.769 2177 552 1813.23 552 1364.5C552 915.769 915.769 552 1364.5 552C1813.23 552 2177 915.769 2177 1364.5Z" fill="currentColor"/>
    <path fill-rule="evenodd" clip-rule="evenodd" d="M2229 1364.5C2229 1841.95 1841.95 2229 1364.5 2229C887.05 2229 500 1841.95 500 1364.5C500 887.05 887.05 500 1364.5 500C1841.95 500 2229 887.05 2229 1364.5ZM2227 1364.5C2227 1840.85 1840.85 2227 1364.5 2227C888.154 2227 502 1840.85 502 1364.5C502 888.154 888.154 502 1364.5 502C1840.85 502 2227 888.154 2227 1364.5Z" fill="currentColor"/>
    <path fill-rule="evenodd" clip-rule="evenodd" d="M1364.5 2279C1869.56 2279 2279 1869.56 2279 1364.5C2279 859.436 1869.56 450 1364.5 450C859.436 450 450 859.436 450 1364.5C450 1869.56 859.436 2279 1364.5 2279ZM1364.5 2277C1868.46 2277 2277 1868.46 2277 1364.5C2277 860.54 1868.46 452 1364.5 452C860.54 452 452 860.54 452 1364.5C452 1868.46 860.54 2277 1364.5 2277Z" fill="currentColor"/>
    <path fill-rule="evenodd" clip-rule="evenodd" d="M1364.5 2329C1897.18 2329 2329 1897.18 2329 1364.5C2329 831.821 1897.18 400 1364.5 400C831.821 400 400 831.821 400 1364.5C400 1897.18 831.821 2329 1364.5 2329ZM1364.5 2327C1896.07 2327 2327 1896.07 2327 1364.5C2327 832.926 1896.07 402 1364.5 402C832.926 402 402 832.926 402 1364.5C402 1896.07 832.926 2327 1364.5 2327Z" fill="currentColor"/>
    <path fill-rule="evenodd" clip-rule="evenodd" d="M1364.5 2379C1924.79 2379 2379 1924.79 2379 1364.5C2379 804.207 1924.79 350 1364.5 350C804.207 350 350 804.207 350 1364.5C350 1924.79 804.207 2379 1364.5 2379ZM1364.5 2377C1923.69 2377 2377 1923.69 2377 1364.5C2377 805.312 1923.69 352 1364.5 352C805.312 352 352 805.312 352 1364.5C352 1923.69 805.312 2377 1364.5 2377Z" fill="currentColor"/>
    <path fill-rule="evenodd" clip-rule="evenodd" d="M2429 1364.5C2429 1952.41 1952.41 2429 1364.5 2429C776.593 2429 300 1952.41 300 1364.5C300 776.593 776.593 300 1364.5 300C1952.41 300 2429 776.593 2429 1364.5ZM2427 1364.5C2427 1951.3 1951.3 2427 1364.5 2427C777.697 2427 302 1951.3 302 1364.5C302 777.697 777.697 302 1364.5 302C1951.3 302 2427 777.697 2427 1364.5Z" fill="currentColor"/>
    <path fill-rule="evenodd" clip-rule="evenodd" d="M1364.5 2479C1980.02 2479 2479 1980.02 2479 1364.5C2479 748.979 1980.02 250 1364.5 250C748.979 250 250 748.979 250 1364.5C250 1980.02 748.979 2479 1364.5 2479ZM1364.5 2477C1978.92 2477 2477 1978.92 2477 1364.5C2477 750.083 1978.92 252 1364.5 252C750.083 252 252 750.083 252 1364.5C252 1978.92 750.083 2477 1364.5 2477Z" fill="currentColor"/>
    <path fill-rule="evenodd" clip-rule="evenodd" d="M2529 1364.5C2529 2007.64 2007.64 2529 1364.5 2529C721.364 2529 200 2007.64 200 1364.5C200 721.364 721.364 200 1364.5 200C2007.64 200 2529 721.364 2529 1364.5ZM2527 1364.5C2527 2006.53 2006.53 2527 1364.5 2527C722.469 2527 202 2006.53 202 1364.5C202 722.469 722.469 202 1364.5 202C2006.53 202 2527 722.469 2527 1364.5Z" fill="currentColor"/>
    <path fill-rule="evenodd" clip-rule="evenodd" d="M1364.5 2579C2035.25 2579 2579 2035.25 2579 1364.5C2579 693.75 2035.25 150 1364.5 150C693.75 150 150 693.75 150 1364.5C150 2035.25 693.75 2579 1364.5 2579ZM1364.5 2577C2034.15 2577 2577 2034.15 2577 1364.5C2577 694.855 2034.15 152 1364.5 152C694.855 152 152 694.855 152 1364.5C152 2034.15 694.855 2577 1364.5 2577Z" fill="currentColor"/>
    <path fill-rule="evenodd" clip-rule="evenodd" d="M2629 1364.5C2629 2062.86 2062.86 2629 1364.5 2629C666.136 2629 100 2062.86 100 1364.5C100 666.136 666.136 100 1364.5 100C2062.86 100 2629 666.136 2629 1364.5ZM2627 1364.5C2627 2061.76 2061.76 2627 1364.5 2627C667.24 2627 102 2061.76 102 1364.5C102 667.24 667.24 102 1364.5 102C2061.76 102 2627 667.24 2627 1364.5Z" fill="currentColor"/>
    <path fill-rule="evenodd" clip-rule="evenodd" d="M1364.5 2679C2090.48 2679 2679 2090.48 2679 1364.5C2679 638.522 2090.48 50 1364.5 50C638.522 50 50 638.522 50 1364.5C50 2090.48 638.522 2679 1364.5 2679ZM1364.5 2677C2089.37 2677 2677 2089.37 2677 1364.5C2677 639.626 2089.37 52 1364.5 52C639.626 52 52 639.626 52 1364.5C52 2089.37 639.626 2677 1364.5 2677Z" fill="currentColor"/>
    <path fill-rule="evenodd" clip-rule="evenodd" d="M2729 1364.5C2729 2118.09 2118.09 2729 1364.5 2729C610.907 2729 0 2118.09 0 1364.5C0 610.907 610.907 0 1364.5 0C2118.09 0 2729 610.907 2729 1364.5ZM2727 1364.5C2727 2116.99 2116.99 2727 1364.5 2727C612.012 2727 2 2116.99 2 1364.5C2 612.012 612.012 2 1364.5 2C2116.99 2 2727 612.012 2727 1364.5Z" fill="currentColor"/>
</svg>
